<?xml version="1.0" encoding="utf-8"?>
<!-- Generator: Adobe Illustrator 19.0.0, SVG Export Plug-In . SVG Version: 6.00 Build 0)  -->
<svg version="1.1" id="Capa_1" xmlns="http://www.w3.org/2000/svg" xmlns:xlink="http://www.w3.org/1999/xlink" x="0px" y="0px"
	 viewBox="0 0 165 49.7" style="enable-background:new 0 0 165 49.7;" xml:space="preserve">
<style type="text/css">
	.st0{fill:#F26666;}
	.st1{fill:#388CF2;}
	.st2{fill:#F2F2E2;}
</style>
<g id="XMLID_1_">
	<rect id="XMLID_10_" x="2.5" y="16.8" class="st0" width="161.2" height="3.1"/>
	<rect id="XMLID_9_" x="2.5" y="21.2" class="st1" width="161.2" height="26.4"/>
	<rect id="XMLID_8_" x="2.5" y="3" class="st0" width="96.3" height="16.9"/>
	<g id="XMLID_2_">
		<path id="XMLID_56_" class="st2" d="M10.9,41.6v-6.3h4.8v10H4.5V24.1h11.1v10h-4.8v-6.3H9.3v13.8H10.9z"/>
		<path id="XMLID_58_" class="st2" d="M17.2,24.1H22v17.5h1.6V24.1h4.8v21.3H17.2V24.1z"/>
		<path id="XMLID_60_" class="st2" d="M36.3,27.9h-1.6v17.5H30V24.1h11.1v21.3h-4.8V27.9z"/>
		<path id="XMLID_62_" class="st2" d="M42.7,24.1h11.1v21.3H42.7V24.1z M49.1,41.6V27.9h-1.6v13.8H49.1z"/>
		<path id="XMLID_65_" class="st2" d="M55.4,24.1h4.8v21.3h-4.8V24.1z"/>
		<path id="XMLID_67_" class="st2" d="M68.1,27.9h-1.6v17.5h-4.8V24.1h11.1v21.3h-4.8V27.9z"/>
		<path id="XMLID_69_" class="st2" d="M80.9,39.1h-1.6v6.3h-4.8V24.1h11.1v21.3h-4.8V39.1z M79.3,35.4h1.6v-7.5h-1.6V35.4z"/>
		<path id="XMLID_72_" class="st2" d="M93.6,27.9H92v17.5h-4.8V24.1h17.5v21.3H100V27.9h-1.6v17.5h-4.8V27.9z"/>
		<path id="XMLID_74_" class="st2" d="M112.7,39.1h-1.6v6.3h-4.8V24.1h11.1v21.3h-4.8V39.1z M111.1,35.4h1.6v-7.5h-1.6V35.4z"/>
		<path id="XMLID_77_" class="st2" d="M127,34.1v1.3h3.2v10h-4.8v-8.8h-1.6v8.8h-4.8V24.1h11.1v10H127z M125.4,32.9v-5h-1.6v5H125.4
			z"/>
		<path id="XMLID_80_" class="st2" d="M138.2,41.6v-6.3h4.8v10h-11.1V24.1h11.1v10h-4.8v-6.3h-1.6v13.8H138.2z"/>
		<path id="XMLID_82_" class="st2" d="M150.9,39.1h-1.6v6.3h-4.8V24.1h11.1v21.3h-4.8V39.1z M149.3,35.4h1.6v-7.5h-1.6V35.4z"/>
		<path id="XMLID_85_" class="st2" d="M157.3,41.6h4.8v3.8h-4.8V41.6z"/>
	</g>
	<g id="XMLID_4_">
		<path id="XMLID_5_" class="st2" d="M6.8,13.6v4.5H5.2v-12h2.3c0.5,0,0.9,0,1.1,0.1c0.3,0.1,0.5,0.2,0.7,0.3S9.6,7,9.6,7.3
			c0.1,0.3,0.1,0.7,0.1,1.3v2.6c0,0.5,0,1-0.1,1.3c-0.1,0.3-0.2,0.6-0.4,0.7s-0.4,0.3-0.7,0.3c-0.3,0.1-0.7,0.1-1.1,0.1H6.8z
			 M6.8,7.7v4.5h0.7c0.1,0,0.3,0,0.3,0C7.9,12.1,8,12.1,8,12c0-0.1,0.1-0.2,0.1-0.3c0-0.1,0-0.3,0-0.5V8.6c0-0.2,0-0.4,0-0.5
			c0-0.1,0-0.2-0.1-0.3S7.9,7.7,7.8,7.7c-0.1,0-0.2,0-0.4,0H6.8z"/>
		<path id="XMLID_12_" class="st2" d="M14.6,16.4c0,0.4,0,0.8-0.1,1c-0.1,0.3-0.2,0.4-0.3,0.6s-0.3,0.2-0.6,0.3
			c-0.3,0-0.6,0.1-1,0.1s-0.7,0-1-0.1c-0.3,0-0.5-0.1-0.6-0.3c-0.1-0.1-0.2-0.3-0.3-0.6s-0.1-0.6-0.1-1v-5.5c0-0.4,0-0.8,0.1-1
			s0.2-0.4,0.3-0.6C11.2,9.1,11.4,9,11.7,9c0.3,0,0.6-0.1,1-0.1s0.7,0,1,0.1c0.3,0,0.5,0.1,0.6,0.3c0.1,0.1,0.2,0.3,0.3,0.6
			c0.1,0.3,0.1,0.6,0.1,1V16.4z M13.3,11c0-0.3,0-0.4-0.1-0.5c-0.1-0.1-0.2-0.1-0.5-0.1c-0.3,0-0.4,0-0.5,0.1
			c-0.1,0.1-0.1,0.3-0.1,0.5v5.2c0,0.3,0,0.4,0.1,0.5c0.1,0.1,0.2,0.1,0.5,0.1c0.3,0,0.4,0,0.5-0.1s0.1-0.3,0.1-0.5V11z"/>
		<path id="XMLID_15_" class="st2" d="M17.4,18.2H16V9h1.3v0.6c0.1-0.2,0.3-0.4,0.5-0.5C18,9,18.3,9,18.6,9c0.5,0,0.8,0.1,1,0.4
			c0.2,0.3,0.3,0.8,0.3,1.5v2.3h-1.3V11c0-0.2,0-0.4-0.1-0.5s-0.2-0.1-0.5-0.1c-0.3,0-0.5,0.2-0.6,0.5V18.2z"/>
		<path id="XMLID_17_" class="st2" d="M23.5,10.3h-1V16c0,0.3,0,0.5,0.1,0.6c0.1,0.1,0.3,0.2,0.6,0.2h0.3v1.3h-0.4
			c-0.4,0-0.7,0-1-0.1c-0.3-0.1-0.5-0.2-0.6-0.3c-0.2-0.2-0.3-0.4-0.3-0.6c-0.1-0.2-0.1-0.5-0.1-0.9v-5.9h-0.5V9h0.5V6.3h1.4V9h1
			V10.3z"/>
		<path id="XMLID_19_" class="st2" d="M26.3,18.3c-0.4,0-0.6,0-0.9-0.1c-0.2,0-0.4-0.1-0.5-0.2c-0.1-0.1-0.2-0.3-0.3-0.5
			c-0.1-0.2-0.1-0.5-0.1-0.9v-2.2c0-0.5,0.1-0.9,0.3-1.2c0.2-0.3,0.5-0.4,1-0.4h0.3c0.3,0,0.5,0,0.7,0c0.1,0,0.2,0.1,0.3,0.1V11
			c0-0.3,0-0.5-0.1-0.6c-0.1-0.1-0.2-0.1-0.5-0.1c-0.2,0-0.4,0.1-0.5,0.2s-0.1,0.3-0.1,0.6v0.9h-1.3v-1.1c0-0.4,0-0.8,0.1-1
			s0.1-0.4,0.3-0.6C25,9.1,25.2,9,25.5,9s0.5-0.1,0.9-0.1c0.4,0,0.8,0,1,0.1c0.3,0,0.5,0.1,0.6,0.3c0.1,0.1,0.2,0.3,0.3,0.6
			c0.1,0.3,0.1,0.6,0.1,1v7.3c-0.2,0.1-0.4,0.1-0.8,0.1C27.3,18.3,26.8,18.3,26.3,18.3z M26.4,17c0.2,0,0.4,0,0.4,0
			c0.1,0,0.2,0,0.2,0v-3c-0.1,0-0.1-0.1-0.2-0.1s-0.2,0-0.4,0c-0.3,0-0.4,0.1-0.5,0.2c-0.1,0.1-0.1,0.3-0.1,0.6v1.4
			c0,0.2,0,0.3,0,0.4c0,0.1,0,0.2,0.1,0.3c0,0.1,0.1,0.1,0.2,0.1C26.2,17,26.3,17,26.4,17z"/>
		<path id="XMLID_22_" class="st2" d="M31.2,18.2h-1.4v-12h1.4V18.2z"/>
		<path id="XMLID_24_" class="st2" d="M35.3,10.8c0-0.4,0-0.7,0.1-0.9c0-0.2,0.1-0.4,0.2-0.6c0.1-0.1,0.2-0.2,0.4-0.3
			C36.1,9,36.3,9,36.6,9c0.3,0,0.6,0.1,0.8,0.2c0.2,0.1,0.3,0.3,0.4,0.5V6.1h1.4v12h-1.3v-0.7c-0.1,0.3-0.3,0.5-0.5,0.6
			c-0.2,0.1-0.5,0.2-0.8,0.2c-0.3,0-0.5,0-0.7-0.1c-0.2-0.1-0.3-0.2-0.4-0.3c-0.1-0.1-0.2-0.3-0.2-0.6c0-0.2-0.1-0.5-0.1-0.9V10.8z
			 M37.9,10.8c-0.1-0.3-0.3-0.5-0.6-0.5c-0.2,0-0.4,0.1-0.5,0.2c-0.1,0.1-0.1,0.3-0.1,0.6v5c0,0.3,0,0.5,0.1,0.6
			c0.1,0.1,0.2,0.2,0.5,0.2c0.3,0,0.5-0.2,0.6-0.5V10.8z"/>
		<path id="XMLID_27_" class="st2" d="M42,14.1v2.1c0,0.3,0,0.5,0.1,0.6s0.2,0.1,0.5,0.1c0.2,0,0.4,0,0.5-0.1s0.1-0.3,0.1-0.6V15
			h1.3v1.3c0,0.4,0,0.8-0.1,1s-0.1,0.4-0.3,0.6c-0.1,0.1-0.3,0.2-0.6,0.3s-0.6,0.1-0.9,0.1c-0.4,0-0.7,0-1-0.1
			c-0.3,0-0.5-0.1-0.6-0.3c-0.1-0.1-0.2-0.3-0.3-0.6s-0.1-0.6-0.1-1v-5.5c0-0.4,0-0.8,0.1-1s0.2-0.4,0.3-0.6C41.1,9.1,41.3,9,41.6,9
			c0.3,0,0.6-0.1,1-0.1c0.4,0,0.7,0,0.9,0.1s0.4,0.1,0.6,0.3c0.1,0.1,0.2,0.3,0.3,0.6s0.1,0.6,0.1,1v3.3H42z M42,12.9h1.2v-1.9
			c0-0.3,0-0.5-0.1-0.6s-0.2-0.1-0.5-0.1c-0.3,0-0.4,0-0.5,0.1S42,10.7,42,10.9V12.9z"/>
		<path id="XMLID_30_" class="st2" d="M49.9,18.2h-1.4V9h1.3v0.6c0.1-0.2,0.3-0.4,0.5-0.5C50.5,9,50.8,9,51.1,9c0.3,0,0.5,0,0.7,0.1
			c0.2,0.1,0.3,0.2,0.5,0.3c0.1,0.1,0.2,0.3,0.2,0.6c0,0.2,0.1,0.5,0.1,0.9v7.3h-1.4V11c0-0.2,0-0.4-0.1-0.5
			c-0.1-0.1-0.2-0.1-0.5-0.1c-0.2,0-0.3,0-0.4,0.1c-0.1,0.1-0.2,0.2-0.2,0.3V18.2z"/>
		<path id="XMLID_32_" class="st2" d="M57.8,16.4c0,0.4,0,0.8-0.1,1c-0.1,0.3-0.2,0.4-0.3,0.6s-0.3,0.2-0.6,0.3
			c-0.3,0-0.6,0.1-1,0.1s-0.7,0-1-0.1c-0.3,0-0.5-0.1-0.6-0.3c-0.1-0.1-0.2-0.3-0.3-0.6s-0.1-0.6-0.1-1v-5.5c0-0.4,0-0.8,0.1-1
			s0.2-0.4,0.3-0.6C54.4,9.1,54.6,9,54.8,9c0.3,0,0.6-0.1,1-0.1s0.7,0,1,0.1c0.3,0,0.5,0.1,0.6,0.3c0.1,0.1,0.2,0.3,0.3,0.6
			c0.1,0.3,0.1,0.6,0.1,1V16.4z M56.4,11c0-0.3,0-0.4-0.1-0.5c-0.1-0.1-0.2-0.1-0.5-0.1c-0.3,0-0.4,0-0.5,0.1
			c-0.1,0.1-0.1,0.3-0.1,0.5v5.2c0,0.3,0,0.4,0.1,0.5c0.1,0.1,0.2,0.1,0.5,0.1c0.3,0,0.4,0,0.5-0.1s0.1-0.3,0.1-0.5V11z"/>
		<path id="XMLID_35_" class="st2" d="M61.6,10.3h-1V16c0,0.3,0,0.5,0.1,0.6c0.1,0.1,0.3,0.2,0.6,0.2h0.3v1.3h-0.4
			c-0.4,0-0.7,0-1-0.1c-0.3-0.1-0.5-0.2-0.6-0.3c-0.2-0.2-0.3-0.4-0.3-0.6c-0.1-0.2-0.1-0.5-0.1-0.9v-5.9h-0.5V9h0.5V6.3h1.4V9h1
			V10.3z"/>
		<path id="XMLID_37_" class="st2" d="M64.2,7.7h-1.4V6.1h1.4V7.7z M64.2,18.2h-1.4V9h1.4V18.2z"/>
		<path id="XMLID_40_" class="st2" d="M68.2,12.4V11c0-0.3,0-0.4-0.1-0.5c-0.1-0.1-0.2-0.1-0.5-0.1c-0.3,0-0.4,0-0.5,0.1
			S67,10.7,67,11v5.2c0,0.3,0,0.4,0.1,0.5c0.1,0.1,0.2,0.1,0.5,0.1c0.2,0,0.4,0,0.5-0.1c0.1-0.1,0.1-0.3,0.1-0.5v-2.4h1.3v2.5
			c0,0.4,0,0.8-0.1,1c-0.1,0.3-0.2,0.5-0.3,0.6c-0.1,0.1-0.3,0.2-0.6,0.3c-0.2,0-0.5,0.1-0.9,0.1c-0.4,0-0.8,0-1-0.1
			c-0.3,0-0.5-0.1-0.6-0.3c-0.1-0.1-0.2-0.3-0.3-0.6s-0.1-0.6-0.1-1v-5.5c0-0.4,0-0.8,0.1-1c0.1-0.3,0.2-0.4,0.3-0.6
			C66.2,9.1,66.4,9,66.6,9c0.3,0,0.6-0.1,1-0.1c0.4,0,0.7,0,0.9,0.1C68.8,9,69,9.1,69.1,9.2s0.2,0.3,0.3,0.6s0.1,0.6,0.1,1v1.6H68.2
			z"/>
		<path id="XMLID_42_" class="st2" d="M72.3,7.7h-1.4V6.1h1.4V7.7z M72.3,18.2h-1.4V9h1.4V18.2z"/>
		<path id="XMLID_45_" class="st2" d="M75.4,18.3c-0.4,0-0.6,0-0.9-0.1c-0.2,0-0.4-0.1-0.5-0.2c-0.1-0.1-0.2-0.3-0.3-0.5
			c-0.1-0.2-0.1-0.5-0.1-0.9v-2.2c0-0.5,0.1-0.9,0.3-1.2c0.2-0.3,0.5-0.4,1-0.4h0.3c0.3,0,0.5,0,0.7,0c0.1,0,0.2,0.1,0.3,0.1V11
			c0-0.3,0-0.5-0.1-0.6c-0.1-0.1-0.2-0.1-0.5-0.1c-0.2,0-0.4,0.1-0.5,0.2S75,10.7,75,11v0.9h-1.3v-1.1c0-0.4,0-0.8,0.1-1
			s0.1-0.4,0.3-0.6C74.2,9.1,74.4,9,74.6,9s0.5-0.1,0.9-0.1c0.4,0,0.8,0,1,0.1c0.3,0,0.5,0.1,0.6,0.3c0.1,0.1,0.2,0.3,0.3,0.6
			c0.1,0.3,0.1,0.6,0.1,1v7.3c-0.2,0.1-0.4,0.1-0.8,0.1C76.4,18.3,76,18.3,75.4,18.3z M75.5,17c0.2,0,0.4,0,0.4,0c0.1,0,0.2,0,0.2,0
			v-3c-0.1,0-0.1-0.1-0.2-0.1s-0.2,0-0.4,0c-0.3,0-0.4,0.1-0.5,0.2C75,14.2,75,14.4,75,14.7v1.4c0,0.2,0,0.3,0,0.4
			c0,0.1,0,0.2,0.1,0.3c0,0.1,0.1,0.1,0.2,0.1C75.3,17,75.4,17,75.5,17z"/>
		<path id="XMLID_48_" class="st2" d="M81.4,11.7V11c0-0.3,0-0.4-0.1-0.5c-0.1-0.1-0.2-0.1-0.5-0.1c-0.3,0-0.4,0-0.5,0.1
			c-0.1,0.1-0.1,0.3-0.1,0.5v0.7c0,0.1,0,0.2,0,0.3c0,0.1,0,0.2,0.1,0.2c0,0.1,0.1,0.1,0.2,0.2c0.1,0.1,0.2,0.1,0.4,0.2
			c0.2,0.1,0.4,0.2,0.5,0.3s0.3,0.2,0.4,0.2c0.2,0.1,0.4,0.2,0.5,0.3s0.2,0.2,0.3,0.3s0.1,0.3,0.1,0.4c0,0.1,0,0.3,0,0.5v1.7
			c0,0.4,0,0.8-0.1,1c-0.1,0.3-0.1,0.5-0.3,0.6c-0.1,0.1-0.3,0.2-0.6,0.3c-0.3,0-0.6,0.1-1,0.1c-0.4,0-0.7,0-1-0.1
			c-0.3,0-0.5-0.1-0.6-0.3c-0.1-0.1-0.2-0.3-0.3-0.6c-0.1-0.3-0.1-0.6-0.1-1V15h1.4v1.2c0,0.3,0,0.5,0.1,0.5
			c0.1,0.1,0.2,0.1,0.5,0.1c0.3,0,0.4,0,0.5-0.1s0.1-0.3,0.1-0.5v-1.1c0-0.1,0-0.2,0-0.3s-0.1-0.2-0.1-0.2s-0.1-0.1-0.3-0.2
			s-0.3-0.1-0.5-0.2c-0.2-0.1-0.3-0.2-0.5-0.2c-0.1-0.1-0.3-0.1-0.4-0.2c-0.2-0.1-0.3-0.2-0.4-0.3c-0.1-0.1-0.2-0.2-0.3-0.4
			c-0.1-0.1-0.1-0.3-0.1-0.4c0-0.2,0-0.4,0-0.6v-1.1c0-0.4,0-0.8,0.1-1c0.1-0.3,0.2-0.5,0.3-0.6C79.3,9.1,79.5,9,79.8,9
			c0.3,0,0.6-0.1,1-0.1c0.4,0,0.7,0,1,0.1c0.3,0,0.5,0.1,0.6,0.3c0.1,0.1,0.2,0.3,0.3,0.6s0.1,0.6,0.1,1v0.8H81.4z"/>
		<path id="XMLID_50_" class="st2" d="M86.6,10.8c0-0.4,0-0.7,0.1-0.9c0-0.2,0.1-0.4,0.2-0.6c0.1-0.1,0.2-0.2,0.4-0.3
			C87.5,9,87.7,9,88,9c0.3,0,0.6,0.1,0.8,0.2c0.2,0.1,0.3,0.3,0.4,0.5V6.1h1.4v12h-1.3v-0.7c-0.1,0.3-0.3,0.5-0.5,0.6
			c-0.2,0.1-0.5,0.2-0.8,0.2c-0.3,0-0.5,0-0.7-0.1c-0.2-0.1-0.3-0.2-0.4-0.3c-0.1-0.1-0.2-0.3-0.2-0.6c0-0.2-0.1-0.5-0.1-0.9V10.8z
			 M89.2,10.8c-0.1-0.3-0.3-0.5-0.6-0.5c-0.2,0-0.4,0.1-0.5,0.2C88,10.6,88,10.8,88,11.1v5c0,0.3,0,0.5,0.1,0.6
			c0.1,0.1,0.2,0.2,0.5,0.2c0.3,0,0.5-0.2,0.6-0.5V10.8z"/>
		<path id="XMLID_53_" class="st2" d="M93.4,14.1v2.1c0,0.3,0,0.5,0.1,0.6S93.7,17,94,17c0.2,0,0.4,0,0.5-0.1s0.1-0.3,0.1-0.6V15
			h1.3v1.3c0,0.4,0,0.8-0.1,1s-0.1,0.4-0.3,0.6c-0.1,0.1-0.3,0.2-0.6,0.3s-0.6,0.1-0.9,0.1c-0.4,0-0.7,0-1-0.1
			c-0.3,0-0.5-0.1-0.6-0.3c-0.1-0.1-0.2-0.3-0.3-0.6s-0.1-0.6-0.1-1v-5.5c0-0.4,0-0.8,0.1-1s0.2-0.4,0.3-0.6C92.5,9.1,92.7,9,93,9
			c0.3,0,0.6-0.1,1-0.1c0.4,0,0.7,0,0.9,0.1s0.4,0.1,0.6,0.3c0.1,0.1,0.2,0.3,0.3,0.6s0.1,0.6,0.1,1v3.3H93.4z M93.4,12.9h1.2v-1.9
			c0-0.3,0-0.5-0.1-0.6s-0.2-0.1-0.5-0.1c-0.3,0-0.4,0-0.5,0.1s-0.1,0.3-0.1,0.6V12.9z"/>
	</g>
</g>
</svg>
